%
M48
M72
T01C0.0315
T02C0.0320
T03C0.0400
T04C0.0440
T05C0.1260
%
T01
X9843Y9343
X9843Y10343
X18138Y7350
X17138Y7350
X16138Y7350
X15138Y7350
X14138Y7350
X13138Y7350
X12138Y7350
X11138Y7350
X10138Y7350
X9138Y7350
X8138Y7350
X7138Y7350
X6138Y7350
X5138Y7350
X4138Y7350
X18138Y13350
X17138Y13350
X16138Y13350
X15138Y13350
X14138Y13350
X13138Y13350
X12138Y13350
X11138Y13350
X10138Y13350
X9138Y13350
X8138Y13350
X7138Y13350
X6138Y13350
X5138Y13350
X4138Y13350
X12594Y5205
X12594Y4205
X12594Y3205
X12594Y2205
X6654Y2150
X7654Y2150
X8654Y2150
T02
X9343Y9843
X10343Y9843
X15780Y11417
X11780Y11417
X15780Y10236
X11780Y10236
X15780Y9055
X11780Y9055
X5512Y15535
X5512Y17535
X5118Y3756
X5118Y1756
X14173Y15929
X14173Y17929
X14173Y3756
X14173Y1756
X1543Y14567
X5543Y14567
X18142Y14961
X14142Y14961
X18142Y5118
X14142Y5118
X1150Y4724
X5150Y4724
X1150Y6299
X5150Y6299
T03
X5610Y9008
X5610Y12008
X18209Y16039
X18209Y17819
X15649Y16039
X15649Y17819
X15649Y3646
X15649Y1866
X18209Y3646
X18209Y1866
X1082Y3646
X1082Y1866
X3642Y3646
X3642Y1866
X4036Y16039
X4036Y17819
X1476Y16039
X1476Y17819
X7693Y17929
X7693Y16929
X7693Y15929
T04
X1575Y11236
X1575Y9236
T05
X9843Y3937
X9843Y15748
M30
